<svg xmlns="http://www.w3.org/2000/svg" xmlns:xlink="http://www.w3.org/1999/xlink" version="1.1" width="256" height="256" viewBox="0 0 256 256" xml:space="preserve">

<defs>
</defs>
<g style="stroke: none; stroke-width: 0; stroke-dasharray: none; stroke-linecap: butt; stroke-linejoin: miter; stroke-miterlimit: 10; fill: none; fill-rule: nonzero; opacity: 1;" transform="translate(1.4065934065934016 1.4065934065934016) scale(2.81 2.81)" >
	<path d="M 24.395 65.17 H 8.081 c -0.558 0 -1.011 -0.452 -1.011 -1.011 c 0 -0.559 0.453 -1.011 1.011 -1.011 h 16.315 c 0.558 0 1.011 0.452 1.011 1.011 C 25.406 64.718 24.954 65.17 24.395 65.17 z" style="stroke: none; stroke-width: 1; stroke-dasharray: none; stroke-linecap: butt; stroke-linejoin: miter; stroke-miterlimit: 10; fill: rgb(0,0,0); fill-rule: nonzero; opacity: 1;" transform=" matrix(1 0 0 1 0 0) " stroke-linecap="round" />
	<path d="M 24.824 57.266 H 1.011 C 0.453 57.266 0 56.813 0 56.255 c 0 -0.558 0.453 -1.011 1.011 -1.011 h 23.813 c 0.558 0 1.011 0.453 1.011 1.011 C 25.835 56.813 25.382 57.266 24.824 57.266 z" style="stroke: none; stroke-width: 1; stroke-dasharray: none; stroke-linecap: butt; stroke-linejoin: miter; stroke-miterlimit: 10; fill: rgb(0,0,0); fill-rule: nonzero; opacity: 1;" transform=" matrix(1 0 0 1 0 0) " stroke-linecap="round" />
	<path d="M 14.682 49.362 H 1.011 C 0.453 49.362 0 48.909 0 48.351 c 0 -0.558 0.453 -1.011 1.011 -1.011 h 13.671 c 0.558 0 1.011 0.453 1.011 1.011 C 15.693 48.909 15.241 49.362 14.682 49.362 z" style="stroke: none; stroke-width: 1; stroke-dasharray: none; stroke-linecap: butt; stroke-linejoin: miter; stroke-miterlimit: 10; fill: rgb(0,0,0); fill-rule: nonzero; opacity: 1;" transform=" matrix(1 0 0 1 0 0) " stroke-linecap="round" />
	<path d="M 14.682 41.457 H 8.081 c -0.558 0 -1.011 -0.453 -1.011 -1.011 c 0 -0.558 0.453 -1.011 1.011 -1.011 h 6.602 c 0.558 0 1.011 0.453 1.011 1.011 C 15.693 41.004 15.241 41.457 14.682 41.457 z" style="stroke: none; stroke-width: 1; stroke-dasharray: none; stroke-linecap: butt; stroke-linejoin: miter; stroke-miterlimit: 10; fill: rgb(0,0,0); fill-rule: nonzero; opacity: 1;" transform=" matrix(1 0 0 1 0 0) " stroke-linecap="round" />
	<circle cx="43.24" cy="67.47" r="7.72" style="stroke: none; stroke-width: 1; stroke-dasharray: none; stroke-linecap: butt; stroke-linejoin: miter; stroke-miterlimit: 10; fill: rgb(51,41,41); fill-rule: nonzero; opacity: 1;" transform="  matrix(1 0 0 1 0 0) "/>
	<circle cx="43.238" cy="67.468" r="3.888" style="stroke: none; stroke-width: 1; stroke-dasharray: none; stroke-linecap: butt; stroke-linejoin: miter; stroke-miterlimit: 10; fill: rgb(239,182,90); fill-rule: nonzero; opacity: 1;" transform="  matrix(1 0 0 1 0 0) "/>
	<circle cx="81.28" cy="67.47" r="7.72" style="stroke: none; stroke-width: 1; stroke-dasharray: none; stroke-linecap: butt; stroke-linejoin: miter; stroke-miterlimit: 10; fill: rgb(51,41,41); fill-rule: nonzero; opacity: 1;" transform="  matrix(1 0 0 1 0 0) "/>
	<circle cx="81.278" cy="67.468" r="3.888" style="stroke: none; stroke-width: 1; stroke-dasharray: none; stroke-linecap: butt; stroke-linejoin: miter; stroke-miterlimit: 10; fill: rgb(239,182,90); fill-rule: nonzero; opacity: 1;" transform="  matrix(1 0 0 1 0 0) "/>
	<path d="M 43.235 76.191 c -4.808 0 -8.72 -3.912 -8.72 -8.72 s 3.912 -8.72 8.72 -8.72 s 8.72 3.912 8.72 8.72 S 48.043 76.191 43.235 76.191 z M 43.235 60.751 c -3.705 0 -6.72 3.015 -6.72 6.72 s 3.015 6.72 6.72 6.72 c 3.706 0 6.72 -3.015 6.72 -6.72 S 46.94 60.751 43.235 60.751 z" style="stroke: none; stroke-width: 1; stroke-dasharray: none; stroke-linecap: butt; stroke-linejoin: miter; stroke-miterlimit: 10; fill: rgb(0,0,0); fill-rule: nonzero; opacity: 1;" transform=" matrix(1 0 0 1 0 0) " stroke-linecap="round" />
	<path d="M 43.235 72.359 c -2.695 0 -4.888 -2.192 -4.888 -4.888 s 2.192 -4.888 4.888 -4.888 s 4.888 2.192 4.888 4.888 S 45.93 72.359 43.235 72.359 z M 43.235 64.583 c -1.592 0 -2.888 1.296 -2.888 2.888 s 1.295 2.888 2.888 2.888 c 1.593 0 2.888 -1.296 2.888 -2.888 S 44.828 64.583 43.235 64.583 z" style="stroke: none; stroke-width: 1; stroke-dasharray: none; stroke-linecap: butt; stroke-linejoin: miter; stroke-miterlimit: 10; fill: rgb(0,0,0); fill-rule: nonzero; opacity: 1;" transform=" matrix(1 0 0 1 0 0) " stroke-linecap="round" />
	<path d="M 81.28 76.191 c -4.809 0 -8.721 -3.912 -8.721 -8.72 s 3.912 -8.72 8.721 -8.72 c 4.808 0 8.72 3.912 8.72 8.72 S 86.088 76.191 81.28 76.191 z M 81.28 60.751 c -3.706 0 -6.721 3.015 -6.721 6.72 s 3.015 6.72 6.721 6.72 c 3.705 0 6.72 -3.015 6.72 -6.72 S 84.985 60.751 81.28 60.751 z" style="stroke: none; stroke-width: 1; stroke-dasharray: none; stroke-linecap: butt; stroke-linejoin: miter; stroke-miterlimit: 10; fill: rgb(0,0,0); fill-rule: nonzero; opacity: 1;" transform=" matrix(1 0 0 1 0 0) " stroke-linecap="round" />
	<path d="M 81.28 72.359 c -2.695 0 -4.889 -2.192 -4.889 -4.888 s 2.193 -4.888 4.889 -4.888 s 4.888 2.192 4.888 4.888 S 83.976 72.359 81.28 72.359 z M 81.28 64.583 c -1.593 0 -2.889 1.296 -2.889 2.888 s 1.296 2.888 2.889 2.888 c 1.592 0 2.888 -1.296 2.888 -2.888 S 82.872 64.583 81.28 64.583 z" style="stroke: none; stroke-width: 1; stroke-dasharray: none; stroke-linecap: butt; stroke-linejoin: miter; stroke-miterlimit: 10; fill: rgb(0,0,0); fill-rule: nonzero; opacity: 1;" transform=" matrix(1 0 0 1 0 0) " stroke-linecap="round" />
	<path d="M 25.054 33.799 h 15.645 c 1.817 0 3.29 1.473 3.29 3.29 v 14.336 H 25.054 c -1.817 0 -3.29 -1.473 -3.29 -3.29 V 37.089 C 21.763 35.272 23.237 33.799 25.054 33.799 z" style="stroke: none; stroke-width: 1; stroke-dasharray: none; stroke-linecap: butt; stroke-linejoin: miter; stroke-miterlimit: 10; fill: rgb(255,155,36); fill-rule: nonzero; opacity: 1;" transform=" matrix(1 0 0 1 0 0) " stroke-linecap="round" />
	<path d="M 44.989 52.425 H 25.054 c -2.366 0 -4.291 -1.925 -4.291 -4.29 V 37.09 c 0 -2.366 1.925 -4.291 4.291 -4.291 h 15.645 c 2.366 0 4.29 1.925 4.29 4.291 V 52.425 z M 25.054 34.799 c -1.263 0 -2.291 1.027 -2.291 2.291 v 11.045 c 0 1.263 1.027 2.29 2.291 2.29 h 17.935 V 37.09 c 0 -1.263 -1.027 -2.291 -2.29 -2.291 H 25.054 z" style="stroke: none; stroke-width: 1; stroke-dasharray: none; stroke-linecap: butt; stroke-linejoin: miter; stroke-miterlimit: 10; fill: rgb(0,0,0); fill-rule: nonzero; opacity: 1;" transform=" matrix(1 0 0 1 0 0) " stroke-linecap="round" />
	<path d="M 77.335 37.704 h 0.538 c 0.656 0 1.187 0.531 1.187 1.187 v 5.563 c 0 0.656 -0.531 1.187 -1.187 1.187 h -0.538 c -2.192 0 -3.968 -1.777 -3.968 -3.968 v 0 C 73.366 39.48 75.143 37.704 77.335 37.704 z" style="stroke: none; stroke-width: 1; stroke-dasharray: none; stroke-linecap: butt; stroke-linejoin: miter; stroke-miterlimit: 10; fill: rgb(255,155,36); fill-rule: nonzero; opacity: 1;" transform=" matrix(1 0 0 1 0 0) " stroke-linecap="round" />
	<path d="M 32.626 66.579 H 73.95 c 0 -3.876 4.885 -8.282 8.282 -8.282 L 70.778 38.21 h -4.644 l 4.068 19.216 c 0.183 0.866 -0.037 1.767 -0.599 2.451 l 0 0 c -0.553 0.673 -1.378 1.063 -2.249 1.063 H 54.952 c -1.468 0 -2.657 -1.19 -2.657 -2.657 v -2.541 c 0 -2.384 -1.933 -4.317 -4.317 -4.317 h -6.256 c -4.237 0 -8.027 2.634 -9.505 6.605 l -1.929 5.184 C 29.681 64.844 30.887 66.579 32.626 66.579 z" style="stroke: none; stroke-width: 1; stroke-dasharray: none; stroke-linecap: butt; stroke-linejoin: miter; stroke-miterlimit: 10; fill: rgb(215,28,34); fill-rule: nonzero; opacity: 1;" transform=" matrix(1 0 0 1 0 0) " stroke-linecap="round" />
	<path d="M 77.873 46.64 h -0.538 c -2.74 0 -4.969 -2.229 -4.969 -4.968 s 2.229 -4.968 4.969 -4.968 h 0.538 c 1.206 0 2.188 0.981 2.188 2.187 v 5.563 C 80.061 45.659 79.079 46.64 77.873 46.64 z M 77.335 38.703 c -1.637 0 -2.969 1.332 -2.969 2.968 s 1.332 2.968 2.969 2.968 h 0.538 c 0.104 0 0.188 -0.084 0.188 -0.187 V 38.89 c 0 -0.103 -0.084 -0.187 -0.188 -0.187 H 77.335 z" style="stroke: none; stroke-width: 1; stroke-dasharray: none; stroke-linecap: butt; stroke-linejoin: miter; stroke-miterlimit: 10; fill: rgb(0,0,0); fill-rule: nonzero; opacity: 1;" transform=" matrix(1 0 0 1 0 0) " stroke-linecap="round" />
	<path d="M 74.949 67.578 H 32.625 c -1.144 0 -2.217 -0.561 -2.87 -1.5 s -0.804 -2.141 -0.405 -3.213 l 1.929 -5.185 c 1.615 -4.34 5.811 -7.256 10.442 -7.256 h 6.256 c 2.932 0 5.317 2.386 5.317 5.317 v 2.54 c 0 0.914 0.743 1.657 1.657 1.657 h 12.401 c 0.574 0 1.112 -0.254 1.477 -0.697 c 0.371 -0.451 0.515 -1.038 0.394 -1.61 L 64.9 37.21 h 6.459 l 12.594 22.087 h -1.722 c -2.81 0 -7.282 3.976 -7.282 7.281 V 67.578 z M 41.722 52.425 c -3.8 0 -7.243 2.393 -8.568 5.953 l -1.929 5.185 c -0.173 0.466 -0.11 0.966 0.174 1.374 c 0.283 0.407 0.73 0.642 1.227 0.642 h 40.411 c 0.61 -3.573 4.325 -7.107 7.61 -8.043 L 70.197 39.21 h -2.83 l 3.813 18.009 c 0.247 1.171 -0.047 2.371 -0.806 3.294 c -0.745 0.906 -1.847 1.427 -3.021 1.427 H 54.952 c -2.017 0 -3.657 -1.641 -3.657 -3.657 v -2.54 c 0 -1.829 -1.488 -3.317 -3.317 -3.317 H 41.722 z" style="stroke: none; stroke-width: 1; stroke-dasharray: none; stroke-linecap: butt; stroke-linejoin: miter; stroke-miterlimit: 10; fill: rgb(0,0,0); fill-rule: nonzero; opacity: 1;" transform=" matrix(1 0 0 1 0 0) " stroke-linecap="round" />
	<path d="M 88.851 63.356 c -0.736 -2.306 -2.433 -4.291 -4.839 -5.305 c -4.368 -1.841 -9.401 0.208 -11.241 4.575 c -0.909 2.158 -0.866 4.477 -0.066 6.495 C 76.179 63.883 82.755 61.471 88.851 63.356 z" style="stroke: none; stroke-width: 1; stroke-dasharray: none; stroke-linecap: butt; stroke-linejoin: miter; stroke-miterlimit: 10; fill: rgb(215,28,34); fill-rule: nonzero; opacity: 1;" transform=" matrix(1 0 0 1 0 0) " stroke-linecap="round" />
	<path d="M 72.705 70.121 c -0.034 0 -0.069 -0.002 -0.104 -0.006 c -0.37 -0.038 -0.688 -0.279 -0.826 -0.625 c -0.933 -2.35 -0.906 -4.926 0.074 -7.252 c 2.053 -4.869 7.683 -7.157 12.552 -5.108 c 2.58 1.088 4.549 3.246 5.402 5.923 c 0.112 0.354 0.02 0.743 -0.243 1.008 c -0.262 0.265 -0.648 0.361 -1.006 0.251 c -5.595 -1.732 -11.773 0.473 -15.017 5.362 C 73.353 69.955 73.038 70.121 72.705 70.121 z M 80.68 58.374 c -0.968 0 -1.936 0.188 -2.858 0.563 c -1.876 0.763 -3.342 2.211 -4.128 4.078 c -0.524 1.243 -0.704 2.575 -0.538 3.883 c 3.469 -3.914 8.773 -5.807 13.936 -4.979 c -0.819 -1.304 -2.021 -2.338 -3.467 -2.946 C 82.677 58.574 81.679 58.374 80.68 58.374 z" style="stroke: none; stroke-width: 1; stroke-dasharray: none; stroke-linecap: butt; stroke-linejoin: miter; stroke-miterlimit: 10; fill: rgb(0,0,0); fill-rule: nonzero; opacity: 1;" transform=" matrix(1 0 0 1 0 0) " stroke-linecap="round" />
	<path d="M 66.362 22.484 c 0 4.239 -3.436 7.675 -7.675 7.675 s -8.448 -5.728 -8.448 -9.967 s 4.21 -5.383 8.448 -5.383 S 66.362 18.246 66.362 22.484 z" style="stroke: none; stroke-width: 1; stroke-dasharray: none; stroke-linecap: butt; stroke-linejoin: miter; stroke-miterlimit: 10; fill: rgb(255,155,36); fill-rule: nonzero; opacity: 1;" transform=" matrix(1 0 0 1 0 0) " stroke-linecap="round" />
	<path d="M 60.073 30.032 c 3.181 -0.581 5.678 -3.121 6.191 -6.325 l -5.795 -1.391 c -1.273 -0.306 -2.401 0.879 -2.032 2.136 L 60.073 30.032 z" style="stroke: none; stroke-width: 1; stroke-dasharray: none; stroke-linecap: butt; stroke-linejoin: miter; stroke-miterlimit: 10; fill: rgb(246,183,125); fill-rule: nonzero; opacity: 1;" transform=" matrix(1 0 0 1 0 0) " stroke-linecap="round" />
	<path d="M 55.634 36.779 L 55.634 36.779 c 0 2.88 2.335 5.215 5.215 5.215 h 4.467 c 1.139 0 2.063 -0.923 2.063 -2.063 v -3.649 l -3.381 0 c -0.919 0 -1.727 -0.583 -2.039 -1.447 c -0.853 -2.365 -3.55 -5.134 -6.918 -5.134 h 0 c -6.106 0.01 -11.051 4.963 -11.051 11.069 v 4.315 h 7.512 c 1.22 0 2.375 0.281 3.402 0.782 l 0 0.001 c -0.031 -1.592 0.975 -3.183 3.015 -4.775" style="stroke: none; stroke-width: 1; stroke-dasharray: none; stroke-linecap: butt; stroke-linejoin: miter; stroke-miterlimit: 10; fill: rgb(215,28,34); fill-rule: nonzero; opacity: 1;" transform=" matrix(1 0 0 1 0 0) " stroke-linecap="round" />
	<path d="M 43.989 51.425 h 3.989 c 2.384 0 4.317 1.933 4.317 4.317 v 2.541 c 0 1.468 1.19 2.657 2.657 2.657 h 4.322 v -8.082 c 0 -4.293 -3.48 -7.773 -7.773 -7.773 h -7.512 V 51.425 z" style="stroke: none; stroke-width: 1; stroke-dasharray: none; stroke-linecap: butt; stroke-linejoin: miter; stroke-miterlimit: 10; fill: rgb(59,101,168); fill-rule: nonzero; opacity: 1;" transform=" matrix(1 0 0 1 0 0) " stroke-linecap="round" />
	<path d="M 69.436 36.282 h -2.058 v 3.441 c 1.193 0.071 2.287 0.29 3.235 0.728 c 0.403 0.186 0.863 -0.094 0.863 -0.537 v -1.593 C 71.475 37.195 70.562 36.282 69.436 36.282 z" style="stroke: none; stroke-width: 1; stroke-dasharray: none; stroke-linecap: butt; stroke-linejoin: miter; stroke-miterlimit: 10; fill: rgb(246,183,125); fill-rule: nonzero; opacity: 1;" transform=" matrix(1 0 0 1 0 0) " stroke-linecap="round" />
	<path d="M 58.687 31.159 c -4.866 0 -9.448 -6.179 -9.448 -10.967 c 0 -2.384 1.228 -6.383 9.448 -6.383 c 4.783 0 8.675 3.892 8.675 8.675 C 67.361 27.268 63.47 31.159 58.687 31.159 z M 58.687 15.809 c -4.942 0 -7.448 1.475 -7.448 4.383 c 0 3.704 3.853 8.967 7.448 8.967 c 3.681 0 6.675 -2.995 6.675 -6.675 S 62.367 15.809 58.687 15.809 z" style="stroke: none; stroke-width: 1; stroke-dasharray: none; stroke-linecap: butt; stroke-linejoin: miter; stroke-miterlimit: 10; fill: rgb(0,0,0); fill-rule: nonzero; opacity: 1;" transform=" matrix(1 0 0 1 0 0) " stroke-linecap="round" />
	<path d="M 59.366 31.177 l -1.89 -6.445 c -0.274 -0.936 -0.036 -1.917 0.637 -2.624 c 0.673 -0.707 1.641 -0.993 2.589 -0.765 l 6.695 1.606 l -0.146 0.915 c -0.579 3.619 -3.392 6.493 -6.999 7.151 L 59.366 31.177 z M 60.063 23.267 c -0.259 0 -0.431 0.147 -0.501 0.22 c -0.084 0.088 -0.269 0.332 -0.165 0.683 l 1.365 4.658 c 2.059 -0.671 3.671 -2.312 4.306 -4.38 l -4.832 -1.16 C 60.174 23.274 60.116 23.267 60.063 23.267 z" style="stroke: none; stroke-width: 1; stroke-dasharray: none; stroke-linecap: butt; stroke-linejoin: miter; stroke-miterlimit: 10; fill: rgb(0,0,0); fill-rule: nonzero; opacity: 1;" transform=" matrix(1 0 0 1 0 0) " stroke-linecap="round" />
	<path d="M 70.876 41.511 c -0.232 0 -0.465 -0.05 -0.685 -0.152 c -0.778 -0.36 -1.719 -0.569 -2.872 -0.637 c -0.528 -0.031 -0.941 -0.469 -0.941 -0.998 v -3.441 c 0 -0.552 0.447 -1 1 -1 h 2.058 c 1.677 0 3.04 1.363 3.04 3.039 v 1.593 c 0 0.547 -0.274 1.049 -0.734 1.343 C 71.478 41.426 71.178 41.511 70.876 41.511 z M 68.378 38.813 c 0.771 0.1 1.465 0.266 2.098 0.5 v -0.992 c 0 -0.573 -0.467 -1.039 -1.04 -1.039 h -1.058 V 38.813 z" style="stroke: none; stroke-width: 1; stroke-dasharray: none; stroke-linecap: butt; stroke-linejoin: miter; stroke-miterlimit: 10; fill: rgb(0,0,0); fill-rule: nonzero; opacity: 1;" transform=" matrix(1 0 0 1 0 0) " stroke-linecap="round" />
	<path d="M 54.902 46.868 c -0.149 0 -0.3 -0.034 -0.438 -0.102 c -0.927 -0.453 -1.923 -0.682 -2.963 -0.682 h -7.512 c -0.552 0 -1 -0.448 -1 -1 V 40.77 c 0 -6.644 5.405 -12.058 12.048 -12.068 c 3.749 0 6.848 2.985 7.861 5.794 c 0.17 0.471 0.611 0.787 1.099 0.787 h 3.381 c 0.553 0 1 0.448 1 1 v 3.649 c 0 1.688 -1.374 3.063 -3.063 3.063 h -4.467 c -1.021 0 -1.985 -0.248 -2.836 -0.686 c -1.423 1.229 -2.132 2.417 -2.11 3.541 c 0.007 0.348 -0.169 0.675 -0.462 0.862 C 55.276 46.815 55.09 46.867 54.902 46.868 z M 44.989 44.085 h 6.512 c 0.891 0 1.758 0.13 2.591 0.388 c 0.331 -1.15 1.095 -2.282 2.284 -3.383 c -1.078 -1.119 -1.742 -2.639 -1.742 -4.311 c 0 -0.552 0.447 -1 1 -1 s 1 0.448 1 1 c 0 2.324 1.891 4.215 4.215 4.215 h 4.467 c 0.586 0 1.063 -0.477 1.063 -1.063 v -2.649 h -2.381 c -1.328 0 -2.525 -0.847 -2.979 -2.108 c -0.671 -1.856 -2.969 -4.472 -5.979 -4.472 c -5.541 0.009 -10.05 4.525 -10.05 10.068 V 44.085 z" style="stroke: none; stroke-width: 1; stroke-dasharray: none; stroke-linecap: butt; stroke-linejoin: miter; stroke-miterlimit: 10; fill: rgb(0,0,0); fill-rule: nonzero; opacity: 1;" transform=" matrix(1 0 0 1 0 0) " stroke-linecap="round" />
	<path d="M 59.273 61.94 h -4.321 c -2.017 0 -3.657 -1.641 -3.657 -3.657 v -2.54 c 0 -1.829 -1.488 -3.317 -3.317 -3.317 h -3.989 c -0.552 0 -1 -0.447 -1 -1 v -6.34 c 0 -0.552 0.448 -1 1 -1 h 7.512 c 4.837 0 8.772 3.936 8.772 8.772 v 8.082 C 60.273 61.492 59.826 61.94 59.273 61.94 z M 44.989 50.425 h 2.989 c 2.932 0 5.317 2.386 5.317 5.317 v 2.54 c 0 0.914 0.743 1.657 1.657 1.657 h 3.321 v -7.082 c 0 -3.734 -3.038 -6.772 -6.772 -6.772 h -6.512 V 50.425 z" style="stroke: none; stroke-width: 1; stroke-dasharray: none; stroke-linecap: butt; stroke-linejoin: miter; stroke-miterlimit: 10; fill: rgb(0,0,0); fill-rule: nonzero; opacity: 1;" transform=" matrix(1 0 0 1 0 0) " stroke-linecap="round" />
</g>
</svg>